<?xml version="1.0" encoding="UTF-8" standalone="no"?>
<!-- Created with Inkscape (http://www.inkscape.org/) -->

<svg
   width="308.62366mm"
   height="84.666664mm"
   viewBox="0 0 308.62366 84.666665"
   version="1.1"
   id="svg193235"
   inkscape:version="1.1.2 (b8e25be833, 2022-02-05)"
   sodipodi:docname="FILE SVG.svg"
   xmlns:inkscape="http://www.inkscape.org/namespaces/inkscape"
   xmlns:sodipodi="http://sodipodi.sourceforge.net/DTD/sodipodi-0.dtd"
   xmlns="http://www.w3.org/2000/svg"
   xmlns:svg="http://www.w3.org/2000/svg">
  <sodipodi:namedview
     id="namedview193237"
     pagecolor="#505050"
     bordercolor="#eeeeee"
     borderopacity="1"
     inkscape:pageshadow="0"
     inkscape:pageopacity="0"
     inkscape:pagecheckerboard="0"
     inkscape:document-units="mm"
     showgrid="false"
     inkscape:object-paths="false"
     showguides="false"
     inkscape:guide-bbox="true"
     inkscape:zoom="0.54800774"
     inkscape:cx="292.87908"
     inkscape:cy="209.85105"
     inkscape:window-width="1920"
     inkscape:window-height="1017"
     inkscape:window-x="-8"
     inkscape:window-y="-8"
     inkscape:window-maximized="1"
     inkscape:current-layer="layer1"
     inkscape:lockguides="true" />
  <defs
     id="defs193232">
    <inkscape:path-effect
       effect="fillet_chamfer"
       id="path-effect254772"
       is_visible="true"
       lpeversion="1"
       satellites_param="F,0,0,1,0,0,0,1 @ F,0,0,1,0,7.7668014,0,1 @ F,0,0,1,0,0,0,1 @ F,0,0,1,0,0,0,1 @ F,0,0,1,0,0,0,1 @ F,0,0,1,0,0,0,1 @ F,0,0,1,0,0,0,1 @ F,0,0,1,0,0,0,1 @ F,0,0,1,0,0,0,1 @ F,0,0,1,0,2.73697,0,1"
       unit="px"
       method="auto"
       mode="F"
       radius="0"
       chamfer_steps="1"
       flexible="false"
       use_knot_distance="true"
       apply_no_radius="true"
       apply_with_radius="true"
       only_selected="false"
       hide_knots="false" />
  </defs>
  <g
     inkscape:label="Layer 1"
     inkscape:groupmode="layer"
     id="layer1"
     transform="translate(-17.593544,-71.013977)">
    <rect
       style="fill:#ffffff;stroke-width:0.185209"
       id="rect1078"
       width="84.666664"
       height="84.666664"
       x="17.593544"
       y="71.013977" />
    <rect
       style="fill:#070921;fill-opacity:1;stroke-width:0.185209"
       id="rect1160"
       width="84.666664"
       height="84.666664"
       x="130.25484"
       y="71.013977" />
    <rect
       style="fill:#2096f6;fill-opacity:1;stroke-width:0.185209"
       id="rect1162"
       width="84.666664"
       height="84.666664"
       x="241.55054"
       y="71.013977" />
    <g
       id="g3990"
       transform="matrix(0.19069106,0,0,0.19069106,-85.870994,89.356782)"
       inkscape:export-filename="D:\WILDAN\BULAN OKTOBER\26 OKTOBER\wildan AT-Uniworks-26 Oct\wildan AT-Uniworks-26 Oct-2.png"
       inkscape:export-xdpi="96"
       inkscape:export-ydpi="96">
      <g
         id="g3986"
         transform="translate(0,-1.5293868e-5)">
        <text
           xml:space="preserve"
           style="font-style:normal;font-variant:normal;font-weight:bold;font-stretch:normal;font-size:25.0035px;line-height:1.25;font-family:Microgramma;-inkscape-font-specification:'Microgramma Bold';letter-spacing:-1.85208px;fill:#070921;fill-opacity:1;stroke-width:0.625089"
           x="701.02716"
           y="124.47224"
           id="text3978"><tspan
             sodipodi:role="line"
             id="tspan3976"
             style="font-style:normal;font-variant:normal;font-weight:bold;font-stretch:normal;font-family:Microgramma;-inkscape-font-specification:'Microgramma Bold';fill:#070921;fill-opacity:1;stroke-width:0.625089"
             x="701.02716"
             y="124.47224">UNIWORKS</tspan></text>
        <text
           xml:space="preserve"
           style="font-style:normal;font-variant:normal;font-weight:bold;font-stretch:normal;font-size:17.5228px;line-height:1.25;font-family:Microgramma;-inkscape-font-specification:'Microgramma Bold';letter-spacing:-1.85208px;fill:#070921;fill-opacity:1;stroke-width:0.438073"
           x="702.08447"
           y="145.08195"
           id="text3982"><tspan
             sodipodi:role="line"
             id="tspan3980"
             style="font-style:normal;font-variant:normal;font-weight:bold;font-stretch:normal;font-family:Microgramma;-inkscape-font-specification:'Microgramma Bold';fill:#070921;fill-opacity:1;stroke-width:0.438073"
             x="702.08447"
             y="145.08195">INC.</tspan></text>
        <rect
           style="fill:#070921;fill-opacity:1;stroke:none;stroke-width:0.525355;stroke-linecap:round;stroke-linejoin:miter;stroke-miterlimit:4;stroke-dasharray:none;stroke-opacity:1"
           id="rect3984"
           width="141.10179"
           height="2.7923834"
           x="754.94922"
           y="137.42915" />
      </g>
      <path
         id="path3988"
         style="fill:#2096f6;fill-opacity:1;stroke:none;stroke-width:0.982398;stroke-linecap:round;stroke-linejoin:round;stroke-opacity:1"
         d="m 633.10165,97.521183 v 47.741277 a 8.8336286,8.8336286 0 0 0 8.83357,8.83305 h 16.08169 v -14.7283 l -3.64318,-2.59933 37.32538,16.97364 v -1.27434 -1.22421 l -20.53312,-9.33741 20.53312,7.77523 v -6.87606 l -17.08216,-5.00229 v -5.71334 l 17.08216,2.79259 v -0.80718 l -11.22982,-1.83606 0.92604,-1.74098 10.30378,1.31775 v -0.80357 l -7.86776,-1.00614 -1.31516,-1.89601 v -2.42828 l 2.0433,0.12041 v -6.38411 l -2.0433,0.076 v -1.54667 l 2.0433,-0.14935 v -6.85643 l -2.0433,0.3607 v -5.3821 l 1.74926,-0.35295 -0.33641,-1.04438 -1.41285,0.28526 v -2.31976 l 0.71056,-0.14366 -0.38499,-1.19528 -0.32557,-0.10438 v -0.83458 l 0.85474,0.27388 1.75027,5.43171 h 1.62935 v -0.85059 l 4.94856,-0.99891 v -1.11207 l -4.94856,0.9989 v -2.31975 l 4.94856,-0.99839 a 3.1129131,3.1129131 0 0 0 -3.11248,-3.113507 z m 48.18724,0.367421 -0.27183,1.840715 0.49919,0.160197 v 0.834574 l -1.02836,-0.3297 z m 4.09948,1.531173 a 0.6185146,0.62570589 0 0 1 0.61857,0.625803 0.6185146,0.62570589 0 0 1 -0.61857,0.62528 0.6185146,0.62570589 0 0 1 -0.61857,-0.62528 0.6185146,0.62570589 0 0 1 0.61857,-0.625803 z m -24.64501,2.522323 -0.2718,1.84072 0.49918,0.16019 v 0.83458 l -1.02835,-0.3297 z m 20.77289,0.74725 v 2.32027 l -15.3112,3.09076 v -2.32078 z m -16.5871,0.65319 a 0.6185146,0.62570589 0 0 1 0.61857,0.6258 0.6185146,0.62570589 0 0 1 -0.61857,0.6258 0.6185146,0.62570589 0 0 1 -0.61857,-0.6258 0.6185146,0.62570589 0 0 1 0.61857,-0.6258 z m -2.95847,0.92087 0.85474,0.27388 1.75027,5.43171 h 1.62936 v -0.75757 l 15.3112,-3.08974 v 5.35626 6.54172 1.51102 6.09162 2.51871 l -0.78134,1.46864 -17.31418,-2.21381 -1.45005,-2.42828 v -14.90141 l 1.77716,-0.35864 -0.33592,-1.04283 -1.44124,0.29094 v -2.32131 l 0.73896,-0.14934 -0.41339,-1.28261 -0.32557,-0.10439 z m -0.99994,2.57245 v 2.32182 l -4.22042,0.85163 v -2.32182 z m 0,3.43235 v 14.71435 l -1.1648,2.18901 -1.78903,0.41031 v -16.71733 z m 19.74713,1.35082 -8.04966,1.42007 v 5.62705 l 8.04966,-0.58808 z m -9.02272,1.59164 -7.90183,1.39474 v 4.70979 l 7.90183,-0.57774 z m 9.02272,6.34948 -8.04966,0.29869 v 5.24309 l 8.04966,0.47387 z m -9.02272,0.33435 -7.90183,0.29352 v 4.39146 l 7.90183,0.46509 z m -10.19937,6.22907 0.66456,1.11105 -1.17512,-0.15038 z m -0.62941,1.74925 12.61316,1.61282 v 1.61076 l -12.61316,-2.06189 z m -1.55549,0.22996 -0.33176,0.6227 -0.96221,-0.1571 v -0.17001 z m 0.84958,0.53227 v 0.2837 l -0.13901,-0.0227 z m 21.91287,0.58704 0.42582,0.6134 -0.70435,-0.0899 z m -24.05642,0.154 2.14355,0.35036 v 4.07779 l -2.14355,0.80409 z m 16.60004,0.25425 5.71799,0.73122 -0.90797,1.70687 -4.81002,-0.78652 z m -13.75058,0.21135 7.20833,1.17822 v 4.86637 2.71508 l -0.42735,-2.84013 -6.78098,-1.98593 z m 8.34572,1.36374 4.26744,0.69815 v 5.56555 l -4.26744,-1.24953 z" />
    </g>
    <g
       id="g4006"
       transform="matrix(0.19069106,0,0,0.19069106,26.790298,89.356782)"
       inkscape:export-filename="D:\WILDAN\BULAN OKTOBER\26 OKTOBER\wildan AT-Uniworks-26 Oct\wildan AT-Uniworks-26 Oct-2.png"
       inkscape:export-xdpi="96"
       inkscape:export-ydpi="96">
      <g
         id="g4002"
         transform="translate(0,-1.5293868e-5)">
        <text
           xml:space="preserve"
           style="font-style:normal;font-variant:normal;font-weight:bold;font-stretch:normal;font-size:25.0035px;line-height:1.25;font-family:Microgramma;-inkscape-font-specification:'Microgramma Bold';letter-spacing:-1.85208px;fill:#ffffff;fill-opacity:1;stroke-width:0.625089"
           x="701.02716"
           y="124.47224"
           id="text3994"><tspan
             sodipodi:role="line"
             id="tspan3992"
             style="font-style:normal;font-variant:normal;font-weight:bold;font-stretch:normal;font-family:Microgramma;-inkscape-font-specification:'Microgramma Bold';fill:#ffffff;fill-opacity:1;stroke-width:0.625089"
             x="701.02716"
             y="124.47224">UNIWORKS</tspan></text>
        <text
           xml:space="preserve"
           style="font-style:normal;font-variant:normal;font-weight:bold;font-stretch:normal;font-size:17.5228px;line-height:1.25;font-family:Microgramma;-inkscape-font-specification:'Microgramma Bold';letter-spacing:-1.85208px;fill:#ffffff;fill-opacity:1;stroke-width:0.438073"
           x="702.08447"
           y="145.08195"
           id="text3998"><tspan
             sodipodi:role="line"
             id="tspan3996"
             style="font-style:normal;font-variant:normal;font-weight:bold;font-stretch:normal;font-family:Microgramma;-inkscape-font-specification:'Microgramma Bold';fill:#ffffff;fill-opacity:1;stroke-width:0.438073"
             x="702.08447"
             y="145.08195">INC.</tspan></text>
        <rect
           style="fill:#ffffff;fill-opacity:1;stroke:none;stroke-width:0.525355;stroke-linecap:round;stroke-linejoin:miter;stroke-miterlimit:4;stroke-dasharray:none;stroke-opacity:1"
           id="rect4000"
           width="141.10179"
           height="2.7923834"
           x="754.94922"
           y="137.42915" />
      </g>
      <path
         id="path4004"
         style="fill:#2096f6;fill-opacity:1;stroke:none;stroke-width:0.982398;stroke-linecap:round;stroke-linejoin:round;stroke-opacity:1"
         d="m 633.10165,97.521183 v 47.741277 a 8.8336286,8.8336286 0 0 0 8.83357,8.83305 h 16.08169 v -14.7283 l -3.64318,-2.59933 37.32538,16.97364 v -1.27434 -1.22421 l -20.53312,-9.33741 20.53312,7.77523 v -6.87606 l -17.08216,-5.00229 v -5.71334 l 17.08216,2.79259 v -0.80718 l -11.22982,-1.83606 0.92604,-1.74098 10.30378,1.31775 v -0.80357 l -7.86776,-1.00614 -1.31516,-1.89601 v -2.42828 l 2.0433,0.12041 v -6.38411 l -2.0433,0.076 v -1.54667 l 2.0433,-0.14935 v -6.85643 l -2.0433,0.3607 v -5.3821 l 1.74926,-0.35295 -0.33641,-1.04438 -1.41285,0.28526 v -2.31976 l 0.71056,-0.14366 -0.38499,-1.19528 -0.32557,-0.10438 v -0.83458 l 0.85474,0.27388 1.75027,5.43171 h 1.62935 v -0.85059 l 4.94856,-0.99891 v -1.11207 l -4.94856,0.9989 v -2.31975 l 4.94856,-0.99839 a 3.1129131,3.1129131 0 0 0 -3.11248,-3.113507 z m 48.18724,0.367421 -0.27183,1.840715 0.49919,0.160197 v 0.834574 l -1.02836,-0.3297 z m 4.09948,1.531173 a 0.6185146,0.62570589 0 0 1 0.61857,0.625803 0.6185146,0.62570589 0 0 1 -0.61857,0.62528 0.6185146,0.62570589 0 0 1 -0.61857,-0.62528 0.6185146,0.62570589 0 0 1 0.61857,-0.625803 z m -24.64501,2.522323 -0.2718,1.84072 0.49918,0.16019 v 0.83458 l -1.02835,-0.3297 z m 20.77289,0.74725 v 2.32027 l -15.3112,3.09076 v -2.32078 z m -16.5871,0.65319 a 0.6185146,0.62570589 0 0 1 0.61857,0.6258 0.6185146,0.62570589 0 0 1 -0.61857,0.6258 0.6185146,0.62570589 0 0 1 -0.61857,-0.6258 0.6185146,0.62570589 0 0 1 0.61857,-0.6258 z m -2.95847,0.92087 0.85474,0.27388 1.75027,5.43171 h 1.62936 v -0.75757 l 15.3112,-3.08974 v 5.35626 6.54172 1.51102 6.09162 2.51871 l -0.78134,1.46864 -17.31418,-2.21381 -1.45005,-2.42828 v -14.90141 l 1.77716,-0.35864 -0.33592,-1.04283 -1.44124,0.29094 v -2.32131 l 0.73896,-0.14934 -0.41339,-1.28261 -0.32557,-0.10439 z m -0.99994,2.57245 v 2.32182 l -4.22042,0.85163 v -2.32182 z m 0,3.43235 v 14.71435 l -1.1648,2.18901 -1.78903,0.41031 v -16.71733 z m 19.74713,1.35082 -8.04966,1.42007 v 5.62705 l 8.04966,-0.58808 z m -9.02272,1.59164 -7.90183,1.39474 v 4.70979 l 7.90183,-0.57774 z m 9.02272,6.34948 -8.04966,0.29869 v 5.24309 l 8.04966,0.47387 z m -9.02272,0.33435 -7.90183,0.29352 v 4.39146 l 7.90183,0.46509 z m -10.19937,6.22907 0.66456,1.11105 -1.17512,-0.15038 z m -0.62941,1.74925 12.61316,1.61282 v 1.61076 l -12.61316,-2.06189 z m -1.55549,0.22996 -0.33176,0.6227 -0.96221,-0.1571 v -0.17001 z m 0.84958,0.53227 v 0.2837 l -0.13901,-0.0227 z m 21.91287,0.58704 0.42582,0.6134 -0.70435,-0.0899 z m -24.05642,0.154 2.14355,0.35036 v 4.07779 l -2.14355,0.80409 z m 16.60004,0.25425 5.71799,0.73122 -0.90797,1.70687 -4.81002,-0.78652 z m -13.75058,0.21135 7.20833,1.17822 v 4.86637 2.71508 l -0.42735,-2.84013 -6.78098,-1.98593 z m 8.34572,1.36374 4.26744,0.69815 v 5.56555 l -4.26744,-1.24953 z" />
    </g>
    <g
       id="g4022"
       transform="matrix(0.19069106,0,0,0.19069106,138.086,89.356782)"
       inkscape:export-filename="D:\WILDAN\BULAN OKTOBER\26 OKTOBER\wildan AT-Uniworks-26 Oct\wildan AT-Uniworks-26 Oct-2.png"
       inkscape:export-xdpi="96"
       inkscape:export-ydpi="96"
       style="fill:#ffffff;fill-opacity:1">
      <g
         id="g4018"
         transform="translate(0,-1.5293868e-5)"
         style="fill:#ffffff;fill-opacity:1">
        <text
           xml:space="preserve"
           style="font-style:normal;font-variant:normal;font-weight:bold;font-stretch:normal;font-size:25.0035px;line-height:1.25;font-family:Microgramma;-inkscape-font-specification:'Microgramma Bold';letter-spacing:-1.85208px;fill:#ffffff;fill-opacity:1;stroke-width:0.625089"
           x="701.02716"
           y="124.47224"
           id="text4010"><tspan
             sodipodi:role="line"
             id="tspan4008"
             style="font-style:normal;font-variant:normal;font-weight:bold;font-stretch:normal;font-family:Microgramma;-inkscape-font-specification:'Microgramma Bold';fill:#ffffff;fill-opacity:1;stroke-width:0.625089"
             x="701.02716"
             y="124.47224">UNIWORKS</tspan></text>
        <text
           xml:space="preserve"
           style="font-style:normal;font-variant:normal;font-weight:bold;font-stretch:normal;font-size:17.5228px;line-height:1.25;font-family:Microgramma;-inkscape-font-specification:'Microgramma Bold';letter-spacing:-1.85208px;fill:#ffffff;fill-opacity:1;stroke-width:0.438073"
           x="702.08447"
           y="145.08195"
           id="text4014"><tspan
             sodipodi:role="line"
             id="tspan4012"
             style="font-style:normal;font-variant:normal;font-weight:bold;font-stretch:normal;font-family:Microgramma;-inkscape-font-specification:'Microgramma Bold';fill:#ffffff;fill-opacity:1;stroke-width:0.438073"
             x="702.08447"
             y="145.08195">INC.</tspan></text>
        <rect
           style="fill:#ffffff;fill-opacity:1;stroke:none;stroke-width:0.525355;stroke-linecap:round;stroke-linejoin:miter;stroke-miterlimit:4;stroke-dasharray:none;stroke-opacity:1"
           id="rect4016"
           width="141.10179"
           height="2.7923834"
           x="754.94922"
           y="137.42915" />
      </g>
      <path
         id="path4020"
         style="fill:#ffffff;fill-opacity:1;stroke:none;stroke-width:0.982398;stroke-linecap:round;stroke-linejoin:round;stroke-opacity:1"
         d="m 633.10165,97.521183 v 47.741277 a 8.8336286,8.8336286 0 0 0 8.83357,8.83305 h 16.08169 v -14.7283 l -3.64318,-2.59933 37.32538,16.97364 v -1.27434 -1.22421 l -20.53312,-9.33741 20.53312,7.77523 v -6.87606 l -17.08216,-5.00229 v -5.71334 l 17.08216,2.79259 v -0.80718 l -11.22982,-1.83606 0.92604,-1.74098 10.30378,1.31775 v -0.80357 l -7.86776,-1.00614 -1.31516,-1.89601 v -2.42828 l 2.0433,0.12041 v -6.38411 l -2.0433,0.076 v -1.54667 l 2.0433,-0.14935 v -6.85643 l -2.0433,0.3607 v -5.3821 l 1.74926,-0.35295 -0.33641,-1.04438 -1.41285,0.28526 v -2.31976 l 0.71056,-0.14366 -0.38499,-1.19528 -0.32557,-0.10438 v -0.83458 l 0.85474,0.27388 1.75027,5.43171 h 1.62935 v -0.85059 l 4.94856,-0.99891 v -1.11207 l -4.94856,0.9989 v -2.31975 l 4.94856,-0.99839 a 3.1129131,3.1129131 0 0 0 -3.11248,-3.113507 z m 48.18724,0.367421 -0.27183,1.840715 0.49919,0.160197 v 0.834574 l -1.02836,-0.3297 z m 4.09948,1.531173 a 0.6185146,0.62570589 0 0 1 0.61857,0.625803 0.6185146,0.62570589 0 0 1 -0.61857,0.62528 0.6185146,0.62570589 0 0 1 -0.61857,-0.62528 0.6185146,0.62570589 0 0 1 0.61857,-0.625803 z m -24.64501,2.522323 -0.2718,1.84072 0.49918,0.16019 v 0.83458 l -1.02835,-0.3297 z m 20.77289,0.74725 v 2.32027 l -15.3112,3.09076 v -2.32078 z m -16.5871,0.65319 a 0.6185146,0.62570589 0 0 1 0.61857,0.6258 0.6185146,0.62570589 0 0 1 -0.61857,0.6258 0.6185146,0.62570589 0 0 1 -0.61857,-0.6258 0.6185146,0.62570589 0 0 1 0.61857,-0.6258 z m -2.95847,0.92087 0.85474,0.27388 1.75027,5.43171 h 1.62936 v -0.75757 l 15.3112,-3.08974 v 5.35626 6.54172 1.51102 6.09162 2.51871 l -0.78134,1.46864 -17.31418,-2.21381 -1.45005,-2.42828 v -14.90141 l 1.77716,-0.35864 -0.33592,-1.04283 -1.44124,0.29094 v -2.32131 l 0.73896,-0.14934 -0.41339,-1.28261 -0.32557,-0.10439 z m -0.99994,2.57245 v 2.32182 l -4.22042,0.85163 v -2.32182 z m 0,3.43235 v 14.71435 l -1.1648,2.18901 -1.78903,0.41031 v -16.71733 z m 19.74713,1.35082 -8.04966,1.42007 v 5.62705 l 8.04966,-0.58808 z m -9.02272,1.59164 -7.90183,1.39474 v 4.70979 l 7.90183,-0.57774 z m 9.02272,6.34948 -8.04966,0.29869 v 5.24309 l 8.04966,0.47387 z m -9.02272,0.33435 -7.90183,0.29352 v 4.39146 l 7.90183,0.46509 z m -10.19937,6.22907 0.66456,1.11105 -1.17512,-0.15038 z m -0.62941,1.74925 12.61316,1.61282 v 1.61076 l -12.61316,-2.06189 z m -1.55549,0.22996 -0.33176,0.6227 -0.96221,-0.1571 v -0.17001 z m 0.84958,0.53227 v 0.2837 l -0.13901,-0.0227 z m 21.91287,0.58704 0.42582,0.6134 -0.70435,-0.0899 z m -24.05642,0.154 2.14355,0.35036 v 4.07779 l -2.14355,0.80409 z m 16.60004,0.25425 5.71799,0.73122 -0.90797,1.70687 -4.81002,-0.78652 z m -13.75058,0.21135 7.20833,1.17822 v 4.86637 2.71508 l -0.42735,-2.84013 -6.78098,-1.98593 z m 8.34572,1.36374 4.26744,0.69815 v 5.56555 l -4.26744,-1.24953 z" />
    </g>
  </g>
</svg>
